HIERARCHY
ROOT Hips
{
    OFFSET 0.000000 0.000000 0.000000
    CHANNELS 6 Xposition Yposition Zposition Zrotation Xrotation Yrotation
    JOINT Spine
    {
        OFFSET -0.000000 14.517291 0.000000
        CHANNELS 3 Zrotation Xrotation Yrotation
        JOINT Spine1
        {
            OFFSET -0.000000 37.558300 0.000000
            CHANNELS 3 Zrotation Xrotation Yrotation
            JOINT Neck
            {
                OFFSET -0.000000 37.404057 3.400369
                CHANNELS 3 Zrotation Xrotation Yrotation
                JOINT Head
                {
                    OFFSET -0.000000 24.785618 -3.540803
                    CHANNELS 3 Zrotation Xrotation Yrotation
                    End Site
                    {
                        OFFSET -0.000000 35.408028 0.000000
                    }
                }
            }
            JOINT LeftShoulder
            {
                OFFSET 6.992933 33.973492 -0.192664
                CHANNELS 3 Zrotation Xrotation Yrotation
                JOINT LeftArm
                {
                    OFFSET 21.527611 0.000000 0.000000
                    CHANNELS 3 Zrotation Xrotation Yrotation
                    JOINT LeftForeArm
                    {
                        OFFSET 56.353916 0.000000 0.000000
                        CHANNELS 3 Zrotation Xrotation Yrotation
                        JOINT LeftHand
                        {
                            OFFSET 47.774071 0.000000 0.000000
                            CHANNELS 3 Zrotation Xrotation Yrotation
                            End Site
                            {
                                OFFSET 26.556021 0.000000 0.000000
                            }
                        }
                    }
                }
            }
            JOINT RightShoulder
            {
                OFFSET -7.065357 33.973492 -0.192664
                CHANNELS 3 Zrotation Xrotation Yrotation
                JOINT RightArm
                {
                    OFFSET -21.527611 0.000000 0.000000
                    CHANNELS 3 Zrotation Xrotation Yrotation
                    JOINT RightForeArm
                    {
                        OFFSET -56.353916 0.000000 0.000000
                        CHANNELS 3 Zrotation Xrotation Yrotation
                        JOINT RightHand
                        {
                            OFFSET -47.774071 0.000000 0.000000
                            CHANNELS 3 Zrotation Xrotation Yrotation
                            End Site
                            {
                                OFFSET -26.556021 0.000000 0.000000
                            }
                        }
                    }
                }
            }
        }
    }
    JOINT LeftUpLeg
    {
        OFFSET 17.704014 0.000000 0.000000
        CHANNELS 3 Zrotation Xrotation Yrotation
        JOINT LeftLeg
        {
            OFFSET -0.000000 -81.181816 0.000000
            CHANNELS 3 Zrotation Xrotation Yrotation
            JOINT LeftFoot
            {
                OFFSET -0.000000 -62.821102 0.000000
                CHANNELS 3 Zrotation Xrotation Yrotation
                JOINT LeftToeBase
                {
                    OFFSET -0.000000 -11.507608 26.556021
                    CHANNELS 3 Zrotation Xrotation Yrotation
                    End Site
                    {
                        OFFSET -0.000000 0.000000 7.081605
                    }
                }
            }
        }
    }
    JOINT RightUpLeg
    {
        OFFSET -17.704014 0.000000 0.000000
        CHANNELS 3 Zrotation Xrotation Yrotation
        JOINT RightLeg
        {
            OFFSET -0.000000 -81.181816 0.000000
            CHANNELS 3 Zrotation Xrotation Yrotation
            JOINT RightFoot
            {
                OFFSET -0.000000 -62.821102 0.000000
                CHANNELS 3 Zrotation Xrotation Yrotation
                JOINT RightToeBase
                {
                    OFFSET -0.000000 -11.507608 26.556021
                    CHANNELS 3 Zrotation Xrotation Yrotation
                    End Site
                    {
                        OFFSET -0.000000 0.000000 7.081605
                    }
                }
            }
        }
    }
}
MOTION
Frames:    12
Frame Time:    0.008333
-9.748134    151.236938    -97.670815    0.946515    -4.147790    36.819679    -3.317556    -0.538602    -6.166786    -1.781018    2.458912    -2.014233    5.911157    6.675173    -14.687604    10.742004    -3.906749    -13.960052    5.276983    8.550274    -15.066666    -35.874523    21.514299    -46.225224    -3.590047    -24.301342    -121.316162    -7.241253    -29.349373    -11.583671    -7.894930    7.052674    -17.379148    23.547562    8.687550    -1.516784    -7.917021    7.494205    90.062149    -17.480406    12.309346    19.711206    16.074516    0.202551    -1.224765    -19.398069    40.124695    -17.787012    9.081165    -33.714272    53.650146    0.000000    0.000000    0.000000    -22.277800    -20.906773    -20.130222    9.097618    29.268463    -15.335180    4.427473    6.237058    -6.771305    0.000000    0.000000    0.000000    
-9.757339    151.206345    -97.671005    0.939040    -4.132629    36.697739    -3.360759    -0.574715    -6.186833    -1.746588    2.514514    -2.020364    5.920043    6.685131    -14.643875    10.741577    -3.944782    -13.911118    5.266346    8.527047    -15.081617    -35.868195    21.513586    -46.196468    -3.587681    -24.306030    -121.314148    -7.259835    -29.347982    -11.589661    -7.958138    7.043042    -17.422813    23.568645    8.721789    -1.630488    -7.615469    7.504254    90.156822    -17.480072    12.165816    18.859156    16.082695    0.212813    -1.153886    -19.464655    40.153847    -17.706028    9.097560    -33.733379    53.643379    0.000000    0.000000    0.000000    -22.258753    -21.002148    -20.047956    9.113487    29.315413    -15.341507    4.427964    6.215092    -6.758127    0.000000    0.000000    0.000000    
-9.739033    151.177094    -97.690086    0.942918    -4.125395    36.591446    -3.350462    -0.585292    -6.224620    -1.771531    2.542674    -2.031888    5.961138    6.684208    -14.595058    10.690316    -3.957389    -13.871454    5.254499    8.531413    -15.060202    -35.857113    21.507496    -46.196518    -3.582044    -24.303074    -121.299713    -7.317271    -29.327883    -11.620331    -8.002242    7.039377    -17.460209    23.614794    8.907144    -1.789617    -7.709064    7.361114    90.124489    -17.370466    12.094937    19.094372    16.061852    0.228627    -1.138175    -19.532291    40.183891    -17.618906    9.122041    -33.778599    53.672703    0.000000    0.000000    0.000000    -22.264067    -21.075678    -20.009523    9.113428    29.364145    -15.310888    4.418808    6.220515    -6.736983    0.000000    0.000000    0.000000    
-9.718102    151.151443    -97.703812    0.957169    -4.130253    36.493008    -3.334645    -0.581942    -6.257027    -1.815222    2.570132    -2.041353    5.987810    6.682422    -14.553910    10.680535    -3.957675    -13.832537    5.264092    8.534205    -15.038052    -35.850983    21.502930    -46.213326    -3.587886    -24.271639    -121.282425    -7.316910    -29.303549    -11.642724    -8.035315    7.055132    -17.502794    23.616579    8.905118    -1.911722    -7.663738    7.443301    90.132523    -17.302357    12.115337    19.279922    16.042761    0.266659    -1.117681    -19.589821    40.198563    -17.560379    9.161492    -33.803413    53.712635    0.000000    0.000000    0.000000    -22.267435    -21.122953    -19.984814    9.107236    29.404902    -15.284055    4.411213    6.215752    -6.690429    0.000000    0.000000    0.000000    
-9.694109    151.124390    -97.721504    0.974055    -4.131305    36.390621    -3.316545    -0.589988    -6.269460    -1.870212    2.610099    -2.043563    6.038746    6.687644    -14.519578    10.652947    -3.978115    -13.803777    5.308808    8.653113    -14.937651    -35.749626    21.494850    -46.438606    -3.566177    -24.343981    -121.202248    -7.382699    -29.320267    -11.710627    -8.055815    7.056848    -17.560207    23.621128    8.915212    -2.020024    -7.636079    7.492221    90.128830    -17.295008    12.104607    19.492815    16.014359    0.306785    -1.079338    -19.631685    40.214108    -17.502916    9.201336    -33.837975    53.741127    0.000000    0.000000    0.000000    -22.278133    -21.172161    -19.970119    9.111832    29.445232    -15.245327    4.388034    6.208600    -6.666100    0.000000    0.000000    0.000000    
-9.666962    151.103790    -97.733765    0.998413    -4.133461    36.290318    -3.303394    -0.595513    -6.280973    -1.923650    2.647645    -2.045487    6.081139    6.690037    -14.490860    10.625896    -3.984670    -13.781466    5.314388    8.655915    -14.930416    -35.760330    21.477953    -46.454697    -3.601484    -24.290407    -121.208069    -7.316518    -29.333336    -11.661469    -8.082827    7.060298    -17.629601    23.657724    9.012000    -2.105794    -7.688641    7.432698    90.109169    -17.187004    12.084871    19.682631    15.979218    0.363324    -1.041469    -19.663818    40.210476    -17.459694    9.241723    -33.859035    53.764935    0.000000    0.000000    0.000000    -22.289980    -21.209021    -19.967478    9.096096    29.474350    -15.200061    4.369069    6.214127    -6.614664    0.000000    0.000000    0.000000    
-9.641625    151.088196    -97.745232    1.018570    -4.137303    36.194355    -3.280239    -0.601985    -6.292787    -1.993002    2.679555    -2.047258    6.133250    6.672863    -14.452283    10.592903    -3.958173    -13.754830    5.332159    8.660028    -14.942257    -35.770363    21.485176    -46.467747    -3.601939    -24.301956    -121.206436    -7.285542    -29.349756    -11.625842    -8.093736    7.050032    -17.669092    23.697191    9.097182    -2.216941    -7.742857    7.354234    90.106720    -17.138226    12.039834    19.876711    15.946741    0.420540    -0.989300    -19.682009    40.199074    -17.413582    9.256042    -33.888000    53.776211    0.000000    0.000000    0.000000    -22.298622    -21.243620    -19.969303    9.080280    29.500198    -15.145293    4.352801    6.225111    -6.572939    0.000000    0.000000    0.000000    
-9.634355    151.080246    -97.770401    1.035825    -4.146577    36.061958    -3.269323    -0.567980    -6.277785    -2.028125    2.665533    -2.042007    6.173032    6.689529    -14.421801    10.562449    -3.959504    -13.730712    5.335300    8.666511    -14.958576    -35.803406    21.464039    -46.451130    -3.618540    -24.255495    -121.208412    -7.251587    -29.335043    -11.614307    -8.099193    7.052516    -17.709024    23.658007    8.996564    -2.287370    -7.656781    7.521573    90.106796    -17.113911    12.096023    20.063057    15.922737    0.488874    -0.899000    -19.690346    40.182213    -17.385893    9.272477    -33.893639    53.783031    0.000000    0.000000    0.000000    -22.285511    -21.307846    -19.924471    9.068421    29.527361    -15.114775    4.339335    6.278868    -6.541306    0.000000    0.000000    0.000000    
-9.608540    151.075287    -97.776123    1.062167    -4.149708    35.967628    -3.269193    -0.572416    -6.289566    -2.068463    2.684418    -2.044620    6.200264    6.715797    -14.393450    10.553061    -3.956230    -13.703919    5.333765    8.700770    -14.964845    -35.808014    21.458990    -46.468510    -3.615690    -24.258593    -121.199898    -7.228634    -29.334782    -11.611726    -8.115373    7.050645    -17.733126    23.665272    8.959657    -2.345982    -7.612599    7.612509    90.098930    -17.162910    12.104890    20.243277    15.879335    0.559147    -0.808177    -19.652643    40.163345    -17.394918    9.279737    -33.901985    53.782803    0.000000    0.000000    0.000000    -22.300297    -21.335938    -19.916882    9.051118    29.548883    -15.083149    4.355794    6.306791    -6.484102    0.000000    0.000000    0.000000    
-9.586658    151.072571    -97.776291    1.083045    -4.149502    35.882393    -3.287592    -0.585716    -6.306403    -2.084193    2.706145    -2.049323    6.232679    6.724041    -14.371115    10.523225    -3.924323    -13.691004    5.340087    8.743171    -14.967100    -35.823425    21.459414    -46.500782    -3.599537    -24.284388    -121.170380    -7.305262    -29.320887    -11.670380    -8.124915    7.034591    -17.751524    23.697577    9.072571    -2.422285    -7.662760    7.528557    90.085037    -17.149611    12.052184    20.375637    15.846610    0.620167    -0.750173    -19.647854    40.129982    -17.352291    9.275028    -33.890766    53.761478    0.000000    0.000000    0.000000    -22.315142    -21.359913    -19.900940    9.059833    29.561739    -15.056509    4.344157    6.329227    -6.454314    0.000000    0.000000    0.000000    
-9.566716    151.072968    -97.780807    1.098194    -4.148585    35.801853    -3.299153    -0.591248    -6.329789    -2.094114    2.712132    -2.056717    6.248796    6.731976    -14.346084    10.500538    -3.889068    -13.672889    5.327468    8.771747    -14.958200    -35.852947    21.453211    -46.516788    -3.602698    -24.255262    -121.164993    -7.287539    -29.300602    -11.638555    -8.128881    7.039445    -17.787390    23.714668    9.167177    -2.435930    -7.699603    7.472949    90.063721    -17.209332    11.998539    20.516811    15.820587    0.672036    -0.700360    -19.650148    40.108524    -17.342386    9.275101    -33.898434    53.767620    0.000000    0.000000    0.000000    -22.329039    -21.390205    -19.893555    9.067618    29.577618    -15.052459    4.341959    6.365311    -6.414675    0.000000    0.000000    0.000000    
-9.549053    151.075790    -97.787598    1.107583    -4.146041    35.728973    -3.307196    -0.593002    -6.361504    -2.083414    2.706975    -2.067608    6.196709    6.746634    -14.326819    10.539747    -3.841957    -13.644785    5.283710    8.806702    -14.942166    -35.857689    21.460455    -46.525188    -3.591105    -24.256823    -121.160141    -7.252013    -29.286692    -11.642567    -8.171851    7.027371    -17.788914    23.743633    9.192561    -2.469584    -7.692425    7.513214    90.075668    -17.259043    12.006839    20.624542    15.790074    0.709318    -0.642336    -19.625605    40.098576    -17.342960    9.266165    -33.901459    53.778912    0.000000    0.000000    0.000000    -22.342644    -21.417728    -19.880894    9.075832    29.589073    -15.024166    4.338986    6.404124    -6.372509    0.000000    0.000000    0.000000    
